<?xml version="1.0" encoding="utf-8" standalone="no"?>
<!DOCTYPE svg PUBLIC "-//W3C//DTD SVG 1.1//EN"
  "http://www.w3.org/Graphics/SVG/1.1/DTD/svg11.dtd">
<svg xmlns:xlink="http://www.w3.org/1999/xlink" width="864pt" height="432pt" viewBox="0 0 864 432" xmlns="http://www.w3.org/2000/svg" version="1.1">
 <metadata>
  <rdf:RDF xmlns:dc="http://purl.org/dc/elements/1.1/" xmlns:cc="http://creativecommons.org/ns#" xmlns:rdf="http://www.w3.org/1999/02/22-rdf-syntax-ns#">
   <cc:Work>
    <dc:type rdf:resource="http://purl.org/dc/dcmitype/StillImage"/>
    <dc:date>2024-03-29T22:29:03.386136</dc:date>
    <dc:format>image/svg+xml</dc:format>
    <dc:creator>
     <cc:Agent>
      <dc:title>Matplotlib v3.7.2, https://matplotlib.org/</dc:title>
     </cc:Agent>
    </dc:creator>
   </cc:Work>
  </rdf:RDF>
 </metadata>
 <defs>
  <style type="text/css">*{stroke-linejoin: round; stroke-linecap: butt}</style>
 </defs>
 <g id="figure_1">
  <g id="patch_1">
   <path d="M 0 432 
L 864 432 
L 864 0 
L 0 0 
z
" style="fill: #ffffff"/>
  </g>
  <g id="axes_1">
   <g id="patch_2">
    <path d="M 125.683687 332.201295 
L 851.04 332.201295 
L 851.04 12.96 
L 125.683687 12.96 
z
" style="fill: #ffffff"/>
   </g>
   <g id="line2d_1">
    <path d="M 125.683687 294.432435 
L 851.04 294.432435 
" clip-path="url(#pa77aeef7ee)" style="fill: none; stroke-dasharray: 1.85,0.8; stroke-dashoffset: 0; stroke: #808080; stroke-width: 0.5"/>
   </g>
   <g id="line2d_2">
    <path d="M 125.683687 256.663574 
L 851.04 256.663574 
" clip-path="url(#pa77aeef7ee)" style="fill: none; stroke-dasharray: 1.85,0.8; stroke-dashoffset: 0; stroke: #808080; stroke-width: 0.5"/>
   </g>
   <g id="line2d_3">
    <path d="M 125.683687 218.894713 
L 851.04 218.894713 
" clip-path="url(#pa77aeef7ee)" style="fill: none; stroke-dasharray: 1.85,0.8; stroke-dashoffset: 0; stroke: #808080; stroke-width: 0.5"/>
   </g>
   <g id="line2d_4">
    <path d="M 125.683687 181.125852 
L 851.04 181.125852 
" clip-path="url(#pa77aeef7ee)" style="fill: none; stroke-dasharray: 1.85,0.8; stroke-dashoffset: 0; stroke: #808080; stroke-width: 0.5"/>
   </g>
   <g id="line2d_5">
    <path d="M 125.683687 143.356992 
L 851.04 143.356992 
" clip-path="url(#pa77aeef7ee)" style="fill: none; stroke-dasharray: 1.85,0.8; stroke-dashoffset: 0; stroke: #808080; stroke-width: 0.5"/>
   </g>
   <g id="line2d_6">
    <path d="M 125.683687 105.588131 
L 851.04 105.588131 
" clip-path="url(#pa77aeef7ee)" style="fill: none; stroke-dasharray: 1.85,0.8; stroke-dashoffset: 0; stroke: #808080; stroke-width: 0.5"/>
   </g>
   <g id="line2d_7">
    <path d="M 125.683687 67.81927 
L 851.04 67.81927 
" clip-path="url(#pa77aeef7ee)" style="fill: none; stroke-dasharray: 1.85,0.8; stroke-dashoffset: 0; stroke: #808080; stroke-width: 0.5"/>
   </g>
   <g id="line2d_8">
    <path d="M 125.683687 30.050409 
L 851.04 30.050409 
" clip-path="url(#pa77aeef7ee)" style="fill: none; stroke-dasharray: 1.85,0.8; stroke-dashoffset: 0; stroke: #808080; stroke-width: 0.5"/>
   </g>
   <g id="line2d_9">
    <path d="M 125.683687 180.181631 
L 851.04 180.181631 
" clip-path="url(#pa77aeef7ee)" style="fill: none; stroke-dasharray: 3.7,1.6; stroke-dashoffset: 0; stroke: #0000ff"/>
   </g>
   <g id="patch_3">
    <path d="M 158.654429 332.201295 
L 202.615417 332.201295 
L 202.615417 79.149928 
L 158.654429 79.149928 
z
" clip-path="url(#pa77aeef7ee)" style="fill: #f08080"/>
   </g>
   <g id="patch_4">
    <path d="M 246.576406 332.201295 
L 290.537395 332.201295 
L 290.537395 126.738693 
L 246.576406 126.738693 
z
" clip-path="url(#pa77aeef7ee)" style="fill: #f08080"/>
   </g>
   <g id="patch_5">
    <path d="M 334.498383 332.201295 
L 378.459372 332.201295 
L 378.459372 153.176895 
L 334.498383 153.176895 
z
" clip-path="url(#pa77aeef7ee)" style="fill: #f08080"/>
   </g>
   <g id="patch_6">
    <path d="M 422.420361 332.201295 
L 466.381349 332.201295 
L 466.381349 162.241422 
L 422.420361 162.241422 
z
" clip-path="url(#pa77aeef7ee)" style="fill: #f08080"/>
   </g>
   <g id="patch_7">
    <path d="M 510.342338 332.201295 
L 554.303327 332.201295 
L 554.303327 167.151374 
L 510.342338 167.151374 
z
" clip-path="url(#pa77aeef7ee)" style="fill: #f08080"/>
   </g>
   <g id="patch_8">
    <path d="M 598.264315 332.201295 
L 642.225304 332.201295 
L 642.225304 170.550571 
L 598.264315 170.550571 
z
" clip-path="url(#pa77aeef7ee)" style="fill: #f08080"/>
   </g>
   <g id="patch_9">
    <path d="M 686.186293 332.201295 
L 730.147281 332.201295 
L 730.147281 250.620556 
L 686.186293 250.620556 
z
" clip-path="url(#pa77aeef7ee)" style="fill: #f08080"/>
   </g>
   <g id="patch_10">
    <path d="M 774.10827 332.201295 
L 818.069259 332.201295 
L 818.069259 283.857154 
L 774.10827 283.857154 
z
" clip-path="url(#pa77aeef7ee)" style="fill: #f08080"/>
   </g>
   <g id="patch_11">
    <path d="M 158.654429 79.149928 
L 202.615417 79.149928 
L 202.615417 78.016863 
L 158.654429 78.016863 
z
" clip-path="url(#pa77aeef7ee)" style="fill: #ffa07a"/>
   </g>
   <g id="patch_12">
    <path d="M 246.576406 126.738693 
L 290.537395 126.738693 
L 290.537395 124.85025 
L 246.576406 124.85025 
z
" clip-path="url(#pa77aeef7ee)" style="fill: #ffa07a"/>
   </g>
   <g id="patch_13">
    <path d="M 334.498383 153.176895 
L 378.459372 153.176895 
L 378.459372 152.421518 
L 334.498383 152.421518 
z
" clip-path="url(#pa77aeef7ee)" style="fill: #ffa07a"/>
   </g>
   <g id="patch_14">
    <path d="M 422.420361 162.241422 
L 466.381349 162.241422 
L 466.381349 161.486045 
L 422.420361 161.486045 
z
" clip-path="url(#pa77aeef7ee)" style="fill: #ffa07a"/>
   </g>
   <g id="patch_15">
    <path d="M 510.342338 167.151374 
L 554.303327 167.151374 
L 554.303327 164.507554 
L 510.342338 164.507554 
z
" clip-path="url(#pa77aeef7ee)" style="fill: #ffa07a"/>
   </g>
   <g id="patch_16">
    <path d="M 598.264315 170.550571 
L 642.225304 170.550571 
L 642.225304 168.662128 
L 598.264315 168.662128 
z
" clip-path="url(#pa77aeef7ee)" style="fill: #ffa07a"/>
   </g>
   <g id="patch_17">
    <path d="M 686.186293 250.620556 
L 730.147281 250.620556 
L 730.147281 249.48749 
L 686.186293 249.48749 
z
" clip-path="url(#pa77aeef7ee)" style="fill: #ffa07a"/>
   </g>
   <g id="patch_18">
    <path d="M 774.10827 283.857154 
L 818.069259 283.857154 
L 818.069259 277.814136 
L 774.10827 277.814136 
z
" clip-path="url(#pa77aeef7ee)" style="fill: #ffa07a"/>
   </g>
   <g id="patch_19">
    <path d="M 158.654429 78.016863 
L 202.615417 78.016863 
L 202.615417 28.161966 
L 158.654429 28.161966 
z
" clip-path="url(#pa77aeef7ee)" style="fill: #90ee90"/>
   </g>
   <g id="patch_20">
    <path d="M 246.576406 124.85025 
L 290.537395 124.85025 
L 290.537395 28.161966 
L 246.576406 28.161966 
z
" clip-path="url(#pa77aeef7ee)" style="fill: #90ee90"/>
   </g>
   <g id="patch_21">
    <path d="M 334.498383 152.421518 
L 378.459372 152.421518 
L 378.459372 28.539655 
L 334.498383 28.539655 
z
" clip-path="url(#pa77aeef7ee)" style="fill: #90ee90"/>
   </g>
   <g id="patch_22">
    <path d="M 422.420361 161.486045 
L 466.381349 161.486045 
L 466.381349 28.161966 
L 422.420361 28.161966 
z
" clip-path="url(#pa77aeef7ee)" style="fill: #90ee90"/>
   </g>
   <g id="patch_23">
    <path d="M 510.342338 164.507554 
L 554.303327 164.507554 
L 554.303327 28.161966 
L 510.342338 28.161966 
z
" clip-path="url(#pa77aeef7ee)" style="fill: #90ee90"/>
   </g>
   <g id="patch_24">
    <path d="M 598.264315 168.662128 
L 642.225304 168.662128 
L 642.225304 28.161966 
L 598.264315 28.161966 
z
" clip-path="url(#pa77aeef7ee)" style="fill: #90ee90"/>
   </g>
   <g id="patch_25">
    <path d="M 686.186293 249.48749 
L 730.147281 249.48749 
L 730.147281 28.161966 
L 686.186293 28.161966 
z
" clip-path="url(#pa77aeef7ee)" style="fill: #90ee90"/>
   </g>
   <g id="patch_26">
    <path d="M 774.10827 277.814136 
L 818.069259 277.814136 
L 818.069259 28.161966 
L 774.10827 28.161966 
z
" clip-path="url(#pa77aeef7ee)" style="fill: #90ee90"/>
   </g>
   <g id="matplotlib.axis_1">
    <g id="xtick_1">
     <g id="line2d_10">
      <defs>
       <path id="mb32b1df3ac" d="M 0 0 
L 0 3.5 
" style="stroke: #000000; stroke-width: 0.8"/>
      </defs>
      <g>
       <use xlink:href="#mb32b1df3ac" x="180.634923" y="332.201295" style="stroke: #000000; stroke-width: 0.8"/>
      </g>
     </g>
     <g id="text_1">
      <!-- FANNO(LLaMA2) VS. LLaMA2 -->
      <g transform="translate(20.102049 404.792073) rotate(-20) scale(0.12 -0.12)">
       <defs>
        <path id="TimesNewRomanPS-BoldMT-46" d="M 1759 3994 
L 1759 2253 
L 1881 2253 
Q 2163 2253 2341 2337 
Q 2519 2422 2642 2622 
Q 2766 2822 2803 3163 
L 2913 3163 
L 2913 1034 
L 2803 1034 
Q 2744 1638 2480 1830 
Q 2216 2022 1881 2022 
L 1759 2022 
L 1759 725 
Q 1759 400 1795 319 
Q 1831 238 1936 177 
Q 2041 116 2219 116 
L 2359 116 
L 2359 0 
L 144 0 
L 144 116 
L 284 116 
Q 469 116 581 181 
Q 663 225 706 331 
Q 741 406 741 725 
L 741 3513 
Q 741 3838 706 3919 
Q 672 4000 567 4061 
Q 463 4122 284 4122 
L 144 4122 
L 144 4238 
L 3719 4238 
L 3719 3022 
L 3591 3022 
Q 3547 3450 3367 3656 
Q 3188 3863 2847 3947 
Q 2659 3994 2153 3994 
L 1759 3994 
z
" transform="scale(0.015625)"/>
        <path id="TimesNewRomanPS-BoldMT-41" d="M 2663 1206 
L 1166 1206 
L 988 794 
Q 900 588 900 453 
Q 900 275 1044 191 
Q 1128 141 1459 116 
L 1459 0 
L 50 0 
L 50 116 
Q 278 150 425 304 
Q 572 459 788 944 
L 2303 4325 
L 2363 4325 
L 3891 850 
Q 4109 356 4250 228 
Q 4356 131 4550 116 
L 4550 0 
L 2500 0 
L 2500 116 
L 2584 116 
Q 2831 116 2931 184 
Q 3000 234 3000 328 
Q 3000 384 2981 444 
Q 2975 472 2888 678 
L 2663 1206 
z
M 2556 1438 
L 1925 2897 
L 1275 1438 
L 2556 1438 
z
" transform="scale(0.015625)"/>
        <path id="TimesNewRomanPS-BoldMT-4e" d="M 1594 4238 
L 3684 1609 
L 3684 3431 
Q 3684 3813 3575 3947 
Q 3425 4128 3072 4122 
L 3072 4238 
L 4472 4238 
L 4472 4122 
Q 4203 4088 4111 4033 
Q 4019 3978 3967 3854 
Q 3916 3731 3916 3431 
L 3916 -97 
L 3809 -97 
L 944 3431 
L 944 738 
Q 944 372 1111 244 
Q 1278 116 1494 116 
L 1594 116 
L 1594 0 
L 91 0 
L 91 116 
Q 441 119 578 259 
Q 716 400 716 738 
L 716 3728 
L 625 3841 
Q 491 4009 387 4062 
Q 284 4116 91 4122 
L 91 4238 
L 1594 4238 
z
" transform="scale(0.015625)"/>
        <path id="TimesNewRomanPS-BoldMT-4f" d="M 2472 4297 
Q 3484 4334 4117 3706 
Q 4750 3078 4750 2134 
Q 4750 1328 4278 716 
Q 3653 -97 2513 -97 
Q 1369 -97 744 678 
Q 250 1291 250 2131 
Q 250 3075 892 3704 
Q 1534 4334 2472 4297 
z
M 2509 4097 
Q 1928 4097 1625 3503 
Q 1378 3016 1378 2103 
Q 1378 1019 1759 500 
Q 2025 138 2503 138 
Q 2825 138 3041 294 
Q 3316 494 3469 933 
Q 3622 1372 3622 2078 
Q 3622 2919 3465 3336 
Q 3309 3753 3067 3925 
Q 2825 4097 2509 4097 
z
" transform="scale(0.015625)"/>
        <path id="TimesNewRomanPS-BoldMT-28" d="M 2056 4334 
L 2056 4191 
Q 1731 3978 1578 3775 
Q 1366 3494 1247 3053 
Q 1097 2506 1097 1525 
Q 1097 600 1233 87 
Q 1369 -425 1603 -741 
Q 1766 -959 2056 -1125 
L 2056 -1281 
Q 1303 -1028 779 -248 
Q 256 531 256 1544 
Q 256 2544 778 3314 
Q 1300 4084 2056 4334 
z
" transform="scale(0.015625)"/>
        <path id="TimesNewRomanPS-BoldMT-4c" d="M 4041 1488 
L 3881 0 
L 119 0 
L 119 116 
L 259 116 
Q 444 116 556 181 
Q 638 225 681 331 
Q 716 406 716 725 
L 716 3513 
Q 716 3838 681 3919 
Q 647 4000 542 4061 
Q 438 4122 259 4122 
L 119 4122 
L 119 4238 
L 2378 4238 
L 2378 4122 
L 2194 4122 
Q 2009 4122 1897 4056 
Q 1816 4013 1769 3906 
Q 1734 3831 1734 3513 
L 1734 813 
Q 1734 488 1771 398 
Q 1809 309 1919 266 
Q 1997 238 2297 238 
L 2650 238 
Q 2988 238 3213 356 
Q 3438 475 3602 731 
Q 3766 988 3913 1488 
L 4041 1488 
z
" transform="scale(0.015625)"/>
        <path id="TimesNewRomanPS-BoldMT-61" d="M 1828 431 
Q 1294 -41 869 -41 
Q 619 -41 453 123 
Q 288 288 288 534 
Q 288 869 575 1136 
Q 863 1403 1828 1847 
L 1828 2141 
Q 1828 2472 1792 2558 
Q 1756 2644 1656 2708 
Q 1556 2772 1431 2772 
Q 1228 2772 1097 2681 
Q 1016 2625 1016 2550 
Q 1016 2484 1103 2388 
Q 1222 2253 1222 2128 
Q 1222 1975 1108 1867 
Q 994 1759 809 1759 
Q 613 1759 480 1878 
Q 347 1997 347 2156 
Q 347 2381 525 2586 
Q 703 2791 1022 2900 
Q 1341 3009 1684 3009 
Q 2100 3009 2342 2832 
Q 2584 2656 2656 2450 
Q 2700 2319 2700 1847 
L 2700 713 
Q 2700 513 2715 461 
Q 2731 409 2762 384 
Q 2794 359 2834 359 
Q 2916 359 3000 475 
L 3094 400 
Q 2938 169 2770 64 
Q 2603 -41 2391 -41 
Q 2141 -41 2000 76 
Q 1859 194 1828 431 
z
M 1828 659 
L 1828 1638 
Q 1450 1416 1266 1163 
Q 1144 994 1144 822 
Q 1144 678 1247 569 
Q 1325 484 1466 484 
Q 1622 484 1828 659 
z
" transform="scale(0.015625)"/>
        <path id="TimesNewRomanPS-BoldMT-4d" d="M 3050 1444 
L 4200 4238 
L 5925 4238 
L 5925 4122 
L 5788 4122 
Q 5600 4122 5488 4056 
Q 5409 4013 5363 3909 
Q 5328 3834 5328 3519 
L 5328 725 
Q 5328 400 5362 319 
Q 5397 238 5503 177 
Q 5609 116 5788 116 
L 5925 116 
L 5925 0 
L 3713 0 
L 3713 116 
L 3850 116 
Q 4038 116 4150 181 
Q 4228 225 4275 331 
Q 4309 406 4309 725 
L 4309 3866 
L 2684 0 
L 2609 0 
L 959 3838 
L 959 853 
Q 959 541 975 469 
Q 1016 313 1152 214 
Q 1288 116 1578 116 
L 1578 0 
L 128 0 
L 128 116 
L 172 116 
Q 313 113 434 161 
Q 556 209 618 290 
Q 681 372 716 519 
Q 722 553 722 838 
L 722 3519 
Q 722 3841 687 3920 
Q 653 4000 547 4061 
Q 441 4122 263 4122 
L 128 4122 
L 128 4238 
L 1859 4238 
L 3050 1444 
z
" transform="scale(0.015625)"/>
        <path id="TimesNewRomanPS-BoldMT-32" d="M 2650 0 
L 156 0 
L 156 69 
Q 1303 1434 1548 1906 
Q 1794 2378 1794 2828 
Q 1794 3156 1591 3373 
Q 1388 3591 1094 3591 
Q 613 3591 347 3109 
L 231 3150 
Q 400 3750 744 4037 
Q 1088 4325 1538 4325 
Q 1859 4325 2125 4175 
Q 2391 4025 2541 3764 
Q 2691 3503 2691 3275 
Q 2691 2859 2459 2431 
Q 2144 1853 1081 819 
L 1997 819 
Q 2334 819 2436 847 
Q 2538 875 2603 942 
Q 2669 1009 2775 1225 
L 2888 1225 
L 2650 0 
z
" transform="scale(0.015625)"/>
        <path id="TimesNewRomanPS-BoldMT-29" d="M 78 -1281 
L 78 -1138 
Q 403 -922 556 -719 
Q 766 -438 888 0 
Q 1038 550 1038 1531 
Q 1038 2456 902 2967 
Q 766 3478 531 3794 
Q 369 4013 78 4178 
L 78 4334 
Q 831 4081 1354 3301 
Q 1878 2522 1878 1509 
Q 1878 513 1354 -257 
Q 831 -1028 78 -1281 
z
" transform="scale(0.015625)"/>
        <path id="TimesNewRomanPS-BoldMT-20" transform="scale(0.015625)"/>
        <path id="TimesNewRomanPS-BoldMT-56" d="M 4556 4238 
L 4556 4122 
Q 4325 4084 4144 3875 
Q 4013 3719 3753 3141 
L 2294 -97 
L 2191 -97 
L 738 3272 
Q 475 3881 386 3987 
Q 297 4094 50 4122 
L 50 4238 
L 2081 4238 
L 2081 4122 
L 2013 4122 
Q 1738 4122 1638 4053 
Q 1566 4006 1566 3916 
Q 1566 3859 1591 3782 
Q 1616 3706 1759 3372 
L 2663 1263 
L 3500 3141 
Q 3650 3481 3684 3597 
Q 3719 3713 3719 3794 
Q 3719 3888 3669 3959 
Q 3619 4031 3522 4069 
Q 3388 4122 3166 4122 
L 3166 4238 
L 4556 4238 
z
" transform="scale(0.015625)"/>
        <path id="TimesNewRomanPS-BoldMT-53" d="M 3006 4334 
L 3041 2922 
L 2913 2922 
Q 2822 3453 2467 3776 
Q 2113 4100 1700 4100 
Q 1381 4100 1195 3929 
Q 1009 3759 1009 3538 
Q 1009 3397 1075 3288 
Q 1166 3141 1366 2997 
Q 1513 2894 2044 2631 
Q 2788 2266 3047 1941 
Q 3303 1616 3303 1197 
Q 3303 666 2889 283 
Q 2475 -100 1838 -100 
Q 1638 -100 1459 -59 
Q 1281 -19 1013 94 
Q 863 156 766 156 
Q 684 156 593 93 
Q 503 31 447 -97 
L 331 -97 
L 331 1503 
L 447 1503 
Q 584 828 976 473 
Q 1369 119 1822 119 
Q 2172 119 2380 309 
Q 2588 500 2588 753 
Q 2588 903 2508 1043 
Q 2428 1184 2265 1311 
Q 2103 1438 1691 1641 
Q 1113 1925 859 2125 
Q 606 2325 470 2572 
Q 334 2819 334 3116 
Q 334 3622 706 3978 
Q 1078 4334 1644 4334 
Q 1850 4334 2044 4284 
Q 2191 4247 2402 4145 
Q 2613 4044 2697 4044 
Q 2778 4044 2825 4094 
Q 2872 4144 2913 4334 
L 3006 4334 
z
" transform="scale(0.015625)"/>
        <path id="TimesNewRomanPS-BoldMT-2e" d="M 800 963 
Q 1019 963 1170 809 
Q 1322 656 1322 441 
Q 1322 225 1169 73 
Q 1016 -78 800 -78 
Q 584 -78 432 73 
Q 281 225 281 441 
Q 281 656 432 809 
Q 584 963 800 963 
z
" transform="scale(0.015625)"/>
       </defs>
       <use xlink:href="#TimesNewRomanPS-BoldMT-46"/>
       <use xlink:href="#TimesNewRomanPS-BoldMT-41" x="53.708984"/>
       <use xlink:href="#TimesNewRomanPS-BoldMT-4e" x="125.925781"/>
       <use xlink:href="#TimesNewRomanPS-BoldMT-4e" x="198.142578"/>
       <use xlink:href="#TimesNewRomanPS-BoldMT-4f" x="270.359375"/>
       <use xlink:href="#TimesNewRomanPS-BoldMT-28" x="348.142578"/>
       <use xlink:href="#TimesNewRomanPS-BoldMT-4c" x="381.443359"/>
       <use xlink:href="#TimesNewRomanPS-BoldMT-4c" x="448.142578"/>
       <use xlink:href="#TimesNewRomanPS-BoldMT-61" x="514.841797"/>
       <use xlink:href="#TimesNewRomanPS-BoldMT-4d" x="564.841797"/>
       <use xlink:href="#TimesNewRomanPS-BoldMT-41" x="659.226562"/>
       <use xlink:href="#TimesNewRomanPS-BoldMT-32" x="731.443359"/>
       <use xlink:href="#TimesNewRomanPS-BoldMT-29" x="781.443359"/>
       <use xlink:href="#TimesNewRomanPS-BoldMT-20" x="814.744141"/>
       <use xlink:href="#TimesNewRomanPS-BoldMT-56" x="837.994141"/>
       <use xlink:href="#TimesNewRomanPS-BoldMT-53" x="910.210938"/>
       <use xlink:href="#TimesNewRomanPS-BoldMT-2e" x="965.826172"/>
       <use xlink:href="#TimesNewRomanPS-BoldMT-20" x="990.826172"/>
       <use xlink:href="#TimesNewRomanPS-BoldMT-4c" x="1015.826172"/>
       <use xlink:href="#TimesNewRomanPS-BoldMT-4c" x="1082.525391"/>
       <use xlink:href="#TimesNewRomanPS-BoldMT-61" x="1149.224609"/>
       <use xlink:href="#TimesNewRomanPS-BoldMT-4d" x="1199.224609"/>
       <use xlink:href="#TimesNewRomanPS-BoldMT-41" x="1293.609375"/>
       <use xlink:href="#TimesNewRomanPS-BoldMT-32" x="1365.826172"/>
      </g>
     </g>
    </g>
    <g id="xtick_2">
     <g id="line2d_11">
      <g>
       <use xlink:href="#mb32b1df3ac" x="268.5569" y="332.201295" style="stroke: #000000; stroke-width: 0.8"/>
      </g>
     </g>
     <g id="text_2">
      <!-- FANNO(LLaMA2) VS. Alpaca 52k -->
      <g transform="translate(99.556221 408.029151) rotate(-20) scale(0.12 -0.12)">
       <defs>
        <path id="TimesNewRomanPS-BoldMT-6c" d="M 1359 4238 
L 1359 606 
Q 1359 297 1431 211 
Q 1503 125 1713 113 
L 1713 0 
L 134 0 
L 134 113 
Q 328 119 422 225 
Q 484 297 484 606 
L 484 3631 
Q 484 3938 412 4023 
Q 341 4109 134 4122 
L 134 4238 
L 1359 4238 
z
" transform="scale(0.015625)"/>
        <path id="TimesNewRomanPS-BoldMT-70" d="M 1347 297 
L 1347 -791 
Q 1347 -1016 1383 -1097 
Q 1419 -1178 1494 -1215 
Q 1569 -1253 1788 -1253 
L 1788 -1369 
L 122 -1369 
L 122 -1253 
Q 316 -1247 409 -1144 
Q 472 -1072 472 -772 
L 472 2313 
Q 472 2622 400 2708 
Q 328 2794 122 2806 
L 122 2922 
L 1347 2922 
L 1347 2538 
Q 1500 2763 1659 2863 
Q 1888 3009 2156 3009 
Q 2478 3009 2742 2806 
Q 3006 2603 3143 2245 
Q 3281 1888 3281 1475 
Q 3281 1031 3139 664 
Q 2997 297 2726 104 
Q 2456 -88 2125 -88 
Q 1884 -88 1675 19 
Q 1519 100 1347 297 
z
M 1347 613 
Q 1616 231 1922 231 
Q 2091 231 2200 409 
Q 2363 672 2363 1409 
Q 2363 2166 2184 2444 
Q 2066 2628 1866 2628 
Q 1550 2628 1347 2172 
L 1347 613 
z
" transform="scale(0.015625)"/>
        <path id="TimesNewRomanPS-BoldMT-63" d="M 2600 753 
L 2697 678 
Q 2491 291 2183 101 
Q 1875 -88 1528 -88 
Q 944 -88 594 353 
Q 244 794 244 1413 
Q 244 2009 563 2463 
Q 947 3009 1622 3009 
Q 2075 3009 2342 2781 
Q 2609 2553 2609 2272 
Q 2609 2094 2501 1987 
Q 2394 1881 2219 1881 
Q 2034 1881 1914 2003 
Q 1794 2125 1766 2438 
Q 1747 2634 1675 2713 
Q 1603 2791 1506 2791 
Q 1356 2791 1250 2631 
Q 1088 2391 1088 1894 
Q 1088 1481 1219 1104 
Q 1350 728 1578 544 
Q 1750 409 1984 409 
Q 2138 409 2275 481 
Q 2413 553 2600 753 
z
" transform="scale(0.015625)"/>
        <path id="TimesNewRomanPS-BoldMT-35" d="M 975 4238 
L 2959 4238 
L 2644 3431 
L 975 3431 
L 816 3009 
Q 1894 2969 2475 2472 
Q 2953 2063 2953 1453 
Q 2953 1063 2731 689 
Q 2509 316 2106 114 
Q 1703 -88 1222 -88 
Q 703 -88 425 106 
Q 231 244 231 419 
Q 231 553 332 656 
Q 434 759 569 759 
Q 691 759 816 709 
Q 941 659 1244 447 
Q 1434 316 1572 266 
Q 1669 228 1791 228 
Q 2047 228 2226 415 
Q 2406 603 2406 866 
Q 2406 1416 1856 1759 
Q 1306 2103 469 2103 
Q 384 2103 216 2100 
L 975 4238 
z
" transform="scale(0.015625)"/>
        <path id="TimesNewRomanPS-BoldMT-6b" d="M 1403 4238 
L 1403 1450 
L 2081 2116 
Q 2291 2319 2342 2409 
Q 2394 2500 2394 2584 
Q 2394 2669 2325 2725 
Q 2256 2781 2056 2806 
L 2056 2922 
L 3366 2922 
L 3366 2806 
Q 3178 2797 3037 2717 
Q 2897 2638 2488 2238 
L 2169 1925 
L 2856 919 
Q 3272 306 3350 231 
Q 3456 125 3619 113 
L 3619 0 
L 2109 0 
L 2109 113 
Q 2209 113 2254 150 
Q 2300 188 2300 231 
Q 2300 303 2169 497 
L 1591 1344 
L 1403 1159 
L 1403 634 
Q 1403 300 1465 217 
Q 1528 134 1722 113 
L 1722 0 
L 213 0 
L 213 113 
Q 397 131 475 231 
Q 528 300 528 634 
L 528 3603 
Q 528 3934 467 4015 
Q 406 4097 213 4122 
L 213 4238 
L 1403 4238 
z
" transform="scale(0.015625)"/>
       </defs>
       <use xlink:href="#TimesNewRomanPS-BoldMT-46"/>
       <use xlink:href="#TimesNewRomanPS-BoldMT-41" x="53.708984"/>
       <use xlink:href="#TimesNewRomanPS-BoldMT-4e" x="125.925781"/>
       <use xlink:href="#TimesNewRomanPS-BoldMT-4e" x="198.142578"/>
       <use xlink:href="#TimesNewRomanPS-BoldMT-4f" x="270.359375"/>
       <use xlink:href="#TimesNewRomanPS-BoldMT-28" x="348.142578"/>
       <use xlink:href="#TimesNewRomanPS-BoldMT-4c" x="381.443359"/>
       <use xlink:href="#TimesNewRomanPS-BoldMT-4c" x="448.142578"/>
       <use xlink:href="#TimesNewRomanPS-BoldMT-61" x="514.841797"/>
       <use xlink:href="#TimesNewRomanPS-BoldMT-4d" x="564.841797"/>
       <use xlink:href="#TimesNewRomanPS-BoldMT-41" x="659.226562"/>
       <use xlink:href="#TimesNewRomanPS-BoldMT-32" x="731.443359"/>
       <use xlink:href="#TimesNewRomanPS-BoldMT-29" x="781.443359"/>
       <use xlink:href="#TimesNewRomanPS-BoldMT-20" x="814.744141"/>
       <use xlink:href="#TimesNewRomanPS-BoldMT-56" x="837.994141"/>
       <use xlink:href="#TimesNewRomanPS-BoldMT-53" x="910.210938"/>
       <use xlink:href="#TimesNewRomanPS-BoldMT-2e" x="965.826172"/>
       <use xlink:href="#TimesNewRomanPS-BoldMT-20" x="990.826172"/>
       <use xlink:href="#TimesNewRomanPS-BoldMT-41" x="1010.326172"/>
       <use xlink:href="#TimesNewRomanPS-BoldMT-6c" x="1082.542969"/>
       <use xlink:href="#TimesNewRomanPS-BoldMT-70" x="1110.326172"/>
       <use xlink:href="#TimesNewRomanPS-BoldMT-61" x="1165.941406"/>
       <use xlink:href="#TimesNewRomanPS-BoldMT-63" x="1215.941406"/>
       <use xlink:href="#TimesNewRomanPS-BoldMT-61" x="1260.326172"/>
       <use xlink:href="#TimesNewRomanPS-BoldMT-20" x="1310.326172"/>
       <use xlink:href="#TimesNewRomanPS-BoldMT-35" x="1335.326172"/>
       <use xlink:href="#TimesNewRomanPS-BoldMT-32" x="1385.326172"/>
       <use xlink:href="#TimesNewRomanPS-BoldMT-6b" x="1435.326172"/>
      </g>
     </g>
    </g>
    <g id="xtick_3">
     <g id="line2d_12">
      <g>
       <use xlink:href="#mb32b1df3ac" x="356.478878" y="332.201295" style="stroke: #000000; stroke-width: 0.8"/>
      </g>
     </g>
     <g id="text_3">
      <!-- FANNO(LLaMA2) VS. LLaMA2 GPT4 -->
      <g transform="translate(164.308903 416.314084) rotate(-20) scale(0.12 -0.12)">
       <defs>
        <path id="TimesNewRomanPS-BoldMT-47" d="M 4416 4334 
L 4416 2841 
L 4300 2841 
Q 4091 3453 3672 3772 
Q 3253 4091 2756 4091 
Q 2281 4091 1965 3823 
Q 1650 3556 1519 3078 
Q 1388 2600 1388 2097 
Q 1388 1488 1531 1028 
Q 1675 569 1995 353 
Q 2316 138 2756 138 
Q 2909 138 3070 170 
Q 3231 203 3400 266 
L 3400 1147 
Q 3400 1397 3365 1470 
Q 3331 1544 3223 1603 
Q 3116 1663 2963 1663 
L 2853 1663 
L 2853 1778 
L 4913 1778 
L 4913 1663 
Q 4678 1647 4586 1598 
Q 4494 1550 4444 1438 
Q 4416 1378 4416 1147 
L 4416 266 
Q 4009 84 3570 -8 
Q 3131 -100 2659 -100 
Q 2056 -100 1657 64 
Q 1259 228 954 495 
Q 650 763 478 1097 
Q 259 1528 259 2063 
Q 259 3019 931 3678 
Q 1603 4338 2622 4338 
Q 2938 4338 3191 4288 
Q 3328 4263 3636 4145 
Q 3944 4028 4000 4028 
Q 4088 4028 4163 4092 
Q 4238 4156 4300 4334 
L 4416 4334 
z
" transform="scale(0.015625)"/>
        <path id="TimesNewRomanPS-BoldMT-50" d="M 1728 1919 
L 1728 744 
Q 1728 400 1770 311 
Q 1813 222 1920 169 
Q 2028 116 2316 116 
L 2316 0 
L 163 0 
L 163 116 
Q 456 116 561 170 
Q 666 225 708 312 
Q 750 400 750 744 
L 750 3494 
Q 750 3838 708 3927 
Q 666 4016 559 4069 
Q 453 4122 163 4122 
L 163 4238 
L 2009 4238 
Q 2922 4238 3319 3913 
Q 3716 3588 3716 3100 
Q 3716 2688 3459 2394 
Q 3203 2100 2753 1994 
Q 2450 1919 1728 1919 
z
M 1728 3994 
L 1728 2163 
Q 1831 2156 1884 2156 
Q 2266 2156 2472 2382 
Q 2678 2609 2678 3084 
Q 2678 3556 2472 3775 
Q 2266 3994 1856 3994 
L 1728 3994 
z
" transform="scale(0.015625)"/>
        <path id="TimesNewRomanPS-BoldMT-54" d="M 4038 4238 
L 4038 3091 
L 3925 3091 
Q 3825 3488 3703 3661 
Q 3581 3834 3369 3938 
Q 3250 3994 2953 3994 
L 2638 3994 
L 2638 725 
Q 2638 400 2673 319 
Q 2709 238 2814 177 
Q 2919 116 3100 116 
L 3241 116 
L 3241 0 
L 1022 0 
L 1022 116 
L 1163 116 
Q 1347 116 1459 181 
Q 1541 225 1588 331 
Q 1622 406 1622 725 
L 1622 3994 
L 1316 3994 
Q 888 3994 694 3813 
Q 422 3559 350 3091 
L 231 3091 
L 231 4238 
L 4038 4238 
z
" transform="scale(0.015625)"/>
        <path id="TimesNewRomanPS-BoldMT-34" d="M 159 1597 
L 2172 4325 
L 2553 4325 
L 2553 1597 
L 2941 1597 
L 2941 950 
L 2553 950 
L 2553 0 
L 1694 0 
L 1694 950 
L 159 950 
L 159 1597 
z
M 463 1597 
L 1694 1597 
L 1694 3269 
L 463 1597 
z
" transform="scale(0.015625)"/>
       </defs>
       <use xlink:href="#TimesNewRomanPS-BoldMT-46"/>
       <use xlink:href="#TimesNewRomanPS-BoldMT-41" x="53.708984"/>
       <use xlink:href="#TimesNewRomanPS-BoldMT-4e" x="125.925781"/>
       <use xlink:href="#TimesNewRomanPS-BoldMT-4e" x="198.142578"/>
       <use xlink:href="#TimesNewRomanPS-BoldMT-4f" x="270.359375"/>
       <use xlink:href="#TimesNewRomanPS-BoldMT-28" x="348.142578"/>
       <use xlink:href="#TimesNewRomanPS-BoldMT-4c" x="381.443359"/>
       <use xlink:href="#TimesNewRomanPS-BoldMT-4c" x="448.142578"/>
       <use xlink:href="#TimesNewRomanPS-BoldMT-61" x="514.841797"/>
       <use xlink:href="#TimesNewRomanPS-BoldMT-4d" x="564.841797"/>
       <use xlink:href="#TimesNewRomanPS-BoldMT-41" x="659.226562"/>
       <use xlink:href="#TimesNewRomanPS-BoldMT-32" x="731.443359"/>
       <use xlink:href="#TimesNewRomanPS-BoldMT-29" x="781.443359"/>
       <use xlink:href="#TimesNewRomanPS-BoldMT-20" x="814.744141"/>
       <use xlink:href="#TimesNewRomanPS-BoldMT-56" x="837.994141"/>
       <use xlink:href="#TimesNewRomanPS-BoldMT-53" x="910.210938"/>
       <use xlink:href="#TimesNewRomanPS-BoldMT-2e" x="965.826172"/>
       <use xlink:href="#TimesNewRomanPS-BoldMT-20" x="990.826172"/>
       <use xlink:href="#TimesNewRomanPS-BoldMT-4c" x="1015.826172"/>
       <use xlink:href="#TimesNewRomanPS-BoldMT-4c" x="1082.525391"/>
       <use xlink:href="#TimesNewRomanPS-BoldMT-61" x="1149.224609"/>
       <use xlink:href="#TimesNewRomanPS-BoldMT-4d" x="1199.224609"/>
       <use xlink:href="#TimesNewRomanPS-BoldMT-41" x="1293.609375"/>
       <use xlink:href="#TimesNewRomanPS-BoldMT-32" x="1365.826172"/>
       <use xlink:href="#TimesNewRomanPS-BoldMT-20" x="1415.826172"/>
       <use xlink:href="#TimesNewRomanPS-BoldMT-47" x="1440.826172"/>
       <use xlink:href="#TimesNewRomanPS-BoldMT-50" x="1518.609375"/>
       <use xlink:href="#TimesNewRomanPS-BoldMT-54" x="1579.693359"/>
       <use xlink:href="#TimesNewRomanPS-BoldMT-34" x="1646.392578"/>
      </g>
     </g>
    </g>
    <g id="xtick_4">
     <g id="line2d_13">
      <g>
       <use xlink:href="#mb32b1df3ac" x="444.400855" y="332.201295" style="stroke: #000000; stroke-width: 0.8"/>
      </g>
     </g>
     <g id="text_4">
      <!-- FANNO(Mistral) VS. Mistral Clean -->
      <g transform="translate(271.678993 409.23555) rotate(-20) scale(0.12 -0.12)">
       <defs>
        <path id="TimesNewRomanPS-BoldMT-69" d="M 919 4338 
Q 1122 4338 1262 4195 
Q 1403 4053 1403 3853 
Q 1403 3653 1261 3512 
Q 1119 3372 919 3372 
Q 719 3372 578 3512 
Q 438 3653 438 3853 
Q 438 4053 578 4195 
Q 719 4338 919 4338 
z
M 1356 2922 
L 1356 606 
Q 1356 297 1428 211 
Q 1500 125 1709 113 
L 1709 0 
L 131 0 
L 131 113 
Q 325 119 419 225 
Q 481 297 481 606 
L 481 2313 
Q 481 2622 409 2708 
Q 338 2794 131 2806 
L 131 2922 
L 1356 2922 
z
" transform="scale(0.015625)"/>
        <path id="TimesNewRomanPS-BoldMT-73" d="M 2063 3003 
L 2109 2006 
L 2003 2006 
Q 1813 2450 1608 2612 
Q 1403 2775 1200 2775 
Q 1072 2775 981 2689 
Q 891 2603 891 2491 
Q 891 2406 953 2328 
Q 1053 2200 1512 1889 
Q 1972 1578 2117 1361 
Q 2263 1144 2263 875 
Q 2263 631 2141 397 
Q 2019 163 1797 37 
Q 1575 -88 1306 -88 
Q 1097 -88 747 44 
Q 653 78 619 78 
Q 516 78 447 -78 
L 344 -78 
L 294 972 
L 400 972 
Q 541 559 786 353 
Q 1031 147 1250 147 
Q 1400 147 1495 239 
Q 1591 331 1591 463 
Q 1591 613 1497 722 
Q 1403 831 1078 1053 
Q 600 1384 459 1559 
Q 253 1816 253 2125 
Q 253 2463 486 2736 
Q 719 3009 1159 3009 
Q 1397 3009 1619 2894 
Q 1703 2847 1756 2847 
Q 1813 2847 1847 2870 
Q 1881 2894 1956 3003 
L 2063 3003 
z
" transform="scale(0.015625)"/>
        <path id="TimesNewRomanPS-BoldMT-74" d="M 1375 3991 
L 1375 2922 
L 2069 2922 
L 2069 2613 
L 1375 2613 
L 1375 809 
Q 1375 556 1398 482 
Q 1422 409 1481 364 
Q 1541 319 1591 319 
Q 1794 319 1975 628 
L 2069 559 
Q 1816 -41 1247 -41 
Q 969 -41 776 114 
Q 584 269 531 459 
Q 500 566 500 1034 
L 500 2613 
L 119 2613 
L 119 2722 
Q 513 3000 789 3306 
Q 1066 3613 1272 3991 
L 1375 3991 
z
" transform="scale(0.015625)"/>
        <path id="TimesNewRomanPS-BoldMT-72" d="M 1428 2922 
L 1428 2259 
Q 1719 2713 1937 2861 
Q 2156 3009 2359 3009 
Q 2534 3009 2639 2901 
Q 2744 2794 2744 2597 
Q 2744 2388 2642 2272 
Q 2541 2156 2397 2156 
Q 2231 2156 2109 2262 
Q 1988 2369 1966 2381 
Q 1934 2400 1894 2400 
Q 1803 2400 1722 2331 
Q 1594 2225 1528 2028 
Q 1428 1725 1428 1359 
L 1428 688 
L 1431 513 
Q 1431 334 1453 284 
Q 1491 200 1564 161 
Q 1638 122 1813 113 
L 1813 0 
L 234 0 
L 234 113 
Q 425 128 492 217 
Q 559 306 559 688 
L 559 2303 
Q 559 2553 534 2622 
Q 503 2709 443 2750 
Q 384 2791 234 2806 
L 234 2922 
L 1428 2922 
z
" transform="scale(0.015625)"/>
        <path id="TimesNewRomanPS-BoldMT-43" d="M 4272 4334 
L 4272 2866 
L 4150 2866 
Q 4013 3441 3638 3747 
Q 3263 4053 2788 4053 
Q 2391 4053 2059 3825 
Q 1728 3597 1575 3228 
Q 1378 2756 1378 2178 
Q 1378 1609 1522 1142 
Q 1666 675 1972 436 
Q 2278 197 2766 197 
Q 3166 197 3498 372 
Q 3831 547 4200 975 
L 4200 609 
Q 3844 238 3458 70 
Q 3072 -97 2556 -97 
Q 1878 -97 1351 175 
Q 825 447 539 956 
Q 253 1466 253 2041 
Q 253 2647 570 3190 
Q 888 3734 1427 4034 
Q 1966 4334 2572 4334 
Q 3019 4334 3516 4141 
Q 3803 4028 3881 4028 
Q 3981 4028 4054 4101 
Q 4128 4175 4150 4334 
L 4272 4334 
z
" transform="scale(0.015625)"/>
        <path id="TimesNewRomanPS-BoldMT-65" d="M 2691 1566 
L 1088 1566 
Q 1116 984 1397 647 
Q 1613 388 1916 388 
Q 2103 388 2256 492 
Q 2409 597 2584 869 
L 2691 800 
Q 2453 316 2165 114 
Q 1878 -88 1500 -88 
Q 850 -88 516 413 
Q 247 816 247 1413 
Q 247 2144 642 2576 
Q 1038 3009 1569 3009 
Q 2013 3009 2339 2645 
Q 2666 2281 2691 1566 
z
M 1922 1775 
Q 1922 2278 1867 2465 
Q 1813 2653 1697 2750 
Q 1631 2806 1522 2806 
Q 1359 2806 1256 2647 
Q 1072 2369 1072 1884 
L 1072 1775 
L 1922 1775 
z
" transform="scale(0.015625)"/>
        <path id="TimesNewRomanPS-BoldMT-6e" d="M 1409 2922 
L 1409 2544 
Q 1634 2788 1840 2898 
Q 2047 3009 2284 3009 
Q 2569 3009 2756 2851 
Q 2944 2694 3006 2459 
Q 3056 2281 3056 1775 
L 3056 638 
Q 3056 300 3117 217 
Q 3178 134 3372 113 
L 3372 0 
L 1894 0 
L 1894 113 
Q 2059 134 2131 250 
Q 2181 328 2181 638 
L 2181 1938 
Q 2181 2297 2153 2390 
Q 2125 2484 2058 2536 
Q 1991 2588 1909 2588 
Q 1641 2588 1409 2203 
L 1409 638 
Q 1409 309 1470 221 
Q 1531 134 1697 113 
L 1697 0 
L 219 0 
L 219 113 
Q 403 131 481 231 
Q 534 300 534 638 
L 534 2288 
Q 534 2619 473 2700 
Q 413 2781 219 2806 
L 219 2922 
L 1409 2922 
z
" transform="scale(0.015625)"/>
       </defs>
       <use xlink:href="#TimesNewRomanPS-BoldMT-46"/>
       <use xlink:href="#TimesNewRomanPS-BoldMT-41" x="53.708984"/>
       <use xlink:href="#TimesNewRomanPS-BoldMT-4e" x="125.925781"/>
       <use xlink:href="#TimesNewRomanPS-BoldMT-4e" x="198.142578"/>
       <use xlink:href="#TimesNewRomanPS-BoldMT-4f" x="270.359375"/>
       <use xlink:href="#TimesNewRomanPS-BoldMT-28" x="348.142578"/>
       <use xlink:href="#TimesNewRomanPS-BoldMT-4d" x="381.443359"/>
       <use xlink:href="#TimesNewRomanPS-BoldMT-69" x="475.828125"/>
       <use xlink:href="#TimesNewRomanPS-BoldMT-73" x="503.611328"/>
       <use xlink:href="#TimesNewRomanPS-BoldMT-74" x="542.527344"/>
       <use xlink:href="#TimesNewRomanPS-BoldMT-72" x="575.828125"/>
       <use xlink:href="#TimesNewRomanPS-BoldMT-61" x="620.212891"/>
       <use xlink:href="#TimesNewRomanPS-BoldMT-6c" x="670.212891"/>
       <use xlink:href="#TimesNewRomanPS-BoldMT-29" x="697.996094"/>
       <use xlink:href="#TimesNewRomanPS-BoldMT-20" x="731.296875"/>
       <use xlink:href="#TimesNewRomanPS-BoldMT-56" x="754.546875"/>
       <use xlink:href="#TimesNewRomanPS-BoldMT-53" x="826.763672"/>
       <use xlink:href="#TimesNewRomanPS-BoldMT-2e" x="882.378906"/>
       <use xlink:href="#TimesNewRomanPS-BoldMT-20" x="907.378906"/>
       <use xlink:href="#TimesNewRomanPS-BoldMT-4d" x="932.378906"/>
       <use xlink:href="#TimesNewRomanPS-BoldMT-69" x="1026.763672"/>
       <use xlink:href="#TimesNewRomanPS-BoldMT-73" x="1054.546875"/>
       <use xlink:href="#TimesNewRomanPS-BoldMT-74" x="1093.462891"/>
       <use xlink:href="#TimesNewRomanPS-BoldMT-72" x="1126.763672"/>
       <use xlink:href="#TimesNewRomanPS-BoldMT-61" x="1171.148438"/>
       <use xlink:href="#TimesNewRomanPS-BoldMT-6c" x="1221.148438"/>
       <use xlink:href="#TimesNewRomanPS-BoldMT-20" x="1248.931641"/>
       <use xlink:href="#TimesNewRomanPS-BoldMT-43" x="1273.931641"/>
       <use xlink:href="#TimesNewRomanPS-BoldMT-6c" x="1346.148438"/>
       <use xlink:href="#TimesNewRomanPS-BoldMT-65" x="1373.931641"/>
       <use xlink:href="#TimesNewRomanPS-BoldMT-61" x="1418.316406"/>
       <use xlink:href="#TimesNewRomanPS-BoldMT-6e" x="1468.316406"/>
      </g>
     </g>
    </g>
    <g id="xtick_5">
     <g id="line2d_14">
      <g>
       <use xlink:href="#mb32b1df3ac" x="532.322832" y="332.201295" style="stroke: #000000; stroke-width: 0.8"/>
      </g>
     </g>
     <g id="text_5">
      <!-- FANNO(LLaMA2) VS. WizardLM -->
      <g transform="translate(362.7971 408.072254) rotate(-20) scale(0.12 -0.12)">
       <defs>
        <path id="TimesNewRomanPS-BoldMT-57" d="M 6344 4238 
L 6344 4122 
Q 6225 4113 6144 4056 
Q 6063 4000 6000 3884 
Q 5981 3847 5803 3400 
L 4475 -97 
L 4353 -97 
L 3303 2634 
L 2147 -97 
L 2031 -97 
L 638 3363 
Q 425 3884 340 3993 
Q 256 4103 56 4122 
L 56 4238 
L 1894 4238 
L 1894 4122 
Q 1672 4116 1598 4055 
Q 1525 3994 1525 3903 
Q 1525 3784 1678 3400 
L 2509 1344 
L 3175 2950 
L 3000 3400 
Q 2856 3769 2778 3892 
Q 2700 4016 2598 4069 
Q 2497 4122 2300 4122 
L 2300 4238 
L 4353 4238 
L 4353 4122 
Q 4138 4119 4044 4088 
Q 3978 4066 3940 4014 
Q 3903 3963 3903 3897 
Q 3903 3825 4044 3456 
L 4816 1450 
L 5506 3266 
Q 5616 3547 5641 3650 
Q 5666 3753 5666 3841 
Q 5666 3969 5578 4042 
Q 5491 4116 5244 4122 
L 5244 4238 
L 6344 4238 
z
" transform="scale(0.015625)"/>
        <path id="TimesNewRomanPS-BoldMT-7a" d="M 2609 0 
L 66 0 
L 66 69 
L 1672 2731 
L 1203 2731 
Q 900 2731 769 2676 
Q 638 2622 556 2501 
Q 475 2381 388 2072 
L 278 2072 
L 278 2922 
L 2738 2922 
L 2738 2838 
L 1144 200 
L 1344 200 
Q 1944 200 2209 372 
Q 2475 544 2609 1000 
L 2697 1000 
L 2609 0 
z
" transform="scale(0.015625)"/>
        <path id="TimesNewRomanPS-BoldMT-64" d="M 3056 4238 
L 3056 875 
Q 3056 534 3075 472 
Q 3100 369 3170 319 
Q 3241 269 3416 256 
L 3416 153 
L 2181 -88 
L 2181 375 
Q 1959 106 1786 9 
Q 1613 -88 1394 -88 
Q 834 -88 509 413 
Q 247 819 247 1409 
Q 247 1881 409 2254 
Q 572 2628 855 2818 
Q 1138 3009 1463 3009 
Q 1672 3009 1834 2928 
Q 1997 2847 2181 2644 
L 2181 3525 
Q 2181 3859 2153 3928 
Q 2116 4019 2041 4062 
Q 1966 4106 1759 4106 
L 1759 4238 
L 3056 4238 
z
M 2181 2256 
Q 1950 2700 1616 2700 
Q 1500 2700 1425 2638 
Q 1309 2541 1236 2297 
Q 1163 2053 1163 1550 
Q 1163 997 1244 731 
Q 1325 466 1466 347 
Q 1538 288 1663 288 
Q 1938 288 2181 719 
L 2181 2256 
z
" transform="scale(0.015625)"/>
       </defs>
       <use xlink:href="#TimesNewRomanPS-BoldMT-46"/>
       <use xlink:href="#TimesNewRomanPS-BoldMT-41" x="53.708984"/>
       <use xlink:href="#TimesNewRomanPS-BoldMT-4e" x="125.925781"/>
       <use xlink:href="#TimesNewRomanPS-BoldMT-4e" x="198.142578"/>
       <use xlink:href="#TimesNewRomanPS-BoldMT-4f" x="270.359375"/>
       <use xlink:href="#TimesNewRomanPS-BoldMT-28" x="348.142578"/>
       <use xlink:href="#TimesNewRomanPS-BoldMT-4c" x="381.443359"/>
       <use xlink:href="#TimesNewRomanPS-BoldMT-4c" x="448.142578"/>
       <use xlink:href="#TimesNewRomanPS-BoldMT-61" x="514.841797"/>
       <use xlink:href="#TimesNewRomanPS-BoldMT-4d" x="564.841797"/>
       <use xlink:href="#TimesNewRomanPS-BoldMT-41" x="659.226562"/>
       <use xlink:href="#TimesNewRomanPS-BoldMT-32" x="731.443359"/>
       <use xlink:href="#TimesNewRomanPS-BoldMT-29" x="781.443359"/>
       <use xlink:href="#TimesNewRomanPS-BoldMT-20" x="814.744141"/>
       <use xlink:href="#TimesNewRomanPS-BoldMT-56" x="837.994141"/>
       <use xlink:href="#TimesNewRomanPS-BoldMT-53" x="910.210938"/>
       <use xlink:href="#TimesNewRomanPS-BoldMT-2e" x="965.826172"/>
       <use xlink:href="#TimesNewRomanPS-BoldMT-20" x="990.826172"/>
       <use xlink:href="#TimesNewRomanPS-BoldMT-57" x="1014.076172"/>
       <use xlink:href="#TimesNewRomanPS-BoldMT-69" x="1112.326172"/>
       <use xlink:href="#TimesNewRomanPS-BoldMT-7a" x="1140.109375"/>
       <use xlink:href="#TimesNewRomanPS-BoldMT-61" x="1184.494141"/>
       <use xlink:href="#TimesNewRomanPS-BoldMT-72" x="1234.494141"/>
       <use xlink:href="#TimesNewRomanPS-BoldMT-64" x="1278.878906"/>
       <use xlink:href="#TimesNewRomanPS-BoldMT-4c" x="1334.494141"/>
       <use xlink:href="#TimesNewRomanPS-BoldMT-4d" x="1401.193359"/>
      </g>
     </g>
    </g>
    <g id="xtick_6">
     <g id="line2d_15">
      <g>
       <use xlink:href="#mb32b1df3ac" x="620.24481" y="332.201295" style="stroke: #000000; stroke-width: 0.8"/>
      </g>
     </g>
     <g id="text_6">
      <!-- FANNO(LLaMA2) VS. LLaMA2 Clean -->
      <g transform="translate(428.702079 416.078738) rotate(-20) scale(0.12 -0.12)">
       <use xlink:href="#TimesNewRomanPS-BoldMT-46"/>
       <use xlink:href="#TimesNewRomanPS-BoldMT-41" x="53.708984"/>
       <use xlink:href="#TimesNewRomanPS-BoldMT-4e" x="125.925781"/>
       <use xlink:href="#TimesNewRomanPS-BoldMT-4e" x="198.142578"/>
       <use xlink:href="#TimesNewRomanPS-BoldMT-4f" x="270.359375"/>
       <use xlink:href="#TimesNewRomanPS-BoldMT-28" x="348.142578"/>
       <use xlink:href="#TimesNewRomanPS-BoldMT-4c" x="381.443359"/>
       <use xlink:href="#TimesNewRomanPS-BoldMT-4c" x="448.142578"/>
       <use xlink:href="#TimesNewRomanPS-BoldMT-61" x="514.841797"/>
       <use xlink:href="#TimesNewRomanPS-BoldMT-4d" x="564.841797"/>
       <use xlink:href="#TimesNewRomanPS-BoldMT-41" x="659.226562"/>
       <use xlink:href="#TimesNewRomanPS-BoldMT-32" x="731.443359"/>
       <use xlink:href="#TimesNewRomanPS-BoldMT-29" x="781.443359"/>
       <use xlink:href="#TimesNewRomanPS-BoldMT-20" x="814.744141"/>
       <use xlink:href="#TimesNewRomanPS-BoldMT-56" x="837.994141"/>
       <use xlink:href="#TimesNewRomanPS-BoldMT-53" x="910.210938"/>
       <use xlink:href="#TimesNewRomanPS-BoldMT-2e" x="965.826172"/>
       <use xlink:href="#TimesNewRomanPS-BoldMT-20" x="990.826172"/>
       <use xlink:href="#TimesNewRomanPS-BoldMT-4c" x="1015.826172"/>
       <use xlink:href="#TimesNewRomanPS-BoldMT-4c" x="1082.525391"/>
       <use xlink:href="#TimesNewRomanPS-BoldMT-61" x="1149.224609"/>
       <use xlink:href="#TimesNewRomanPS-BoldMT-4d" x="1199.224609"/>
       <use xlink:href="#TimesNewRomanPS-BoldMT-41" x="1293.609375"/>
       <use xlink:href="#TimesNewRomanPS-BoldMT-32" x="1365.826172"/>
       <use xlink:href="#TimesNewRomanPS-BoldMT-20" x="1415.826172"/>
       <use xlink:href="#TimesNewRomanPS-BoldMT-43" x="1440.826172"/>
       <use xlink:href="#TimesNewRomanPS-BoldMT-6c" x="1513.042969"/>
       <use xlink:href="#TimesNewRomanPS-BoldMT-65" x="1540.826172"/>
       <use xlink:href="#TimesNewRomanPS-BoldMT-61" x="1585.210938"/>
       <use xlink:href="#TimesNewRomanPS-BoldMT-6e" x="1635.210938"/>
      </g>
     </g>
    </g>
    <g id="xtick_7">
     <g id="line2d_16">
      <g>
       <use xlink:href="#mb32b1df3ac" x="708.166787" y="332.201295" style="stroke: #000000; stroke-width: 0.8"/>
      </g>
     </g>
     <g id="text_7">
      <!-- FANNO(LLaMA2) VS. LLaMA2 Chat -->
      <g transform="translate(521.007723 414.483214) rotate(-20) scale(0.12 -0.12)">
       <defs>
        <path id="TimesNewRomanPS-BoldMT-68" d="M 1409 4238 
L 1409 2547 
Q 1650 2800 1850 2904 
Q 2050 3009 2266 3009 
Q 2541 3009 2736 2853 
Q 2931 2697 2995 2486 
Q 3059 2275 3059 1775 
L 3059 634 
Q 3059 300 3121 217 
Q 3184 134 3375 113 
L 3375 0 
L 1894 0 
L 1894 113 
Q 2050 134 2128 238 
Q 2184 319 2184 634 
L 2184 1938 
Q 2184 2300 2156 2392 
Q 2128 2484 2061 2536 
Q 1994 2588 1909 2588 
Q 1784 2588 1665 2502 
Q 1547 2416 1409 2200 
L 1409 634 
Q 1409 322 1456 244 
Q 1516 138 1700 113 
L 1700 0 
L 219 0 
L 219 113 
Q 403 131 481 231 
Q 534 300 534 634 
L 534 3603 
Q 534 3934 473 4015 
Q 413 4097 219 4122 
L 219 4238 
L 1409 4238 
z
" transform="scale(0.015625)"/>
       </defs>
       <use xlink:href="#TimesNewRomanPS-BoldMT-46"/>
       <use xlink:href="#TimesNewRomanPS-BoldMT-41" x="53.708984"/>
       <use xlink:href="#TimesNewRomanPS-BoldMT-4e" x="125.925781"/>
       <use xlink:href="#TimesNewRomanPS-BoldMT-4e" x="198.142578"/>
       <use xlink:href="#TimesNewRomanPS-BoldMT-4f" x="270.359375"/>
       <use xlink:href="#TimesNewRomanPS-BoldMT-28" x="348.142578"/>
       <use xlink:href="#TimesNewRomanPS-BoldMT-4c" x="381.443359"/>
       <use xlink:href="#TimesNewRomanPS-BoldMT-4c" x="448.142578"/>
       <use xlink:href="#TimesNewRomanPS-BoldMT-61" x="514.841797"/>
       <use xlink:href="#TimesNewRomanPS-BoldMT-4d" x="564.841797"/>
       <use xlink:href="#TimesNewRomanPS-BoldMT-41" x="659.226562"/>
       <use xlink:href="#TimesNewRomanPS-BoldMT-32" x="731.443359"/>
       <use xlink:href="#TimesNewRomanPS-BoldMT-29" x="781.443359"/>
       <use xlink:href="#TimesNewRomanPS-BoldMT-20" x="814.744141"/>
       <use xlink:href="#TimesNewRomanPS-BoldMT-56" x="837.994141"/>
       <use xlink:href="#TimesNewRomanPS-BoldMT-53" x="910.210938"/>
       <use xlink:href="#TimesNewRomanPS-BoldMT-2e" x="965.826172"/>
       <use xlink:href="#TimesNewRomanPS-BoldMT-20" x="990.826172"/>
       <use xlink:href="#TimesNewRomanPS-BoldMT-4c" x="1015.826172"/>
       <use xlink:href="#TimesNewRomanPS-BoldMT-4c" x="1082.525391"/>
       <use xlink:href="#TimesNewRomanPS-BoldMT-61" x="1149.224609"/>
       <use xlink:href="#TimesNewRomanPS-BoldMT-4d" x="1199.224609"/>
       <use xlink:href="#TimesNewRomanPS-BoldMT-41" x="1293.609375"/>
       <use xlink:href="#TimesNewRomanPS-BoldMT-32" x="1365.826172"/>
       <use xlink:href="#TimesNewRomanPS-BoldMT-20" x="1415.826172"/>
       <use xlink:href="#TimesNewRomanPS-BoldMT-43" x="1440.826172"/>
       <use xlink:href="#TimesNewRomanPS-BoldMT-68" x="1513.042969"/>
       <use xlink:href="#TimesNewRomanPS-BoldMT-61" x="1568.658203"/>
       <use xlink:href="#TimesNewRomanPS-BoldMT-74" x="1618.658203"/>
      </g>
     </g>
    </g>
    <g id="xtick_8">
     <g id="line2d_17">
      <g>
       <use xlink:href="#mb32b1df3ac" x="796.088764" y="332.201295" style="stroke: #000000; stroke-width: 0.8"/>
      </g>
     </g>
     <g id="text_8">
      <!-- Alpaca 52k VS. LLaMA2 Chat -->
      <g transform="translate(646.608437 400.924324) rotate(-20) scale(0.12 -0.12)">
       <use xlink:href="#TimesNewRomanPS-BoldMT-41"/>
       <use xlink:href="#TimesNewRomanPS-BoldMT-6c" x="72.216797"/>
       <use xlink:href="#TimesNewRomanPS-BoldMT-70" x="100"/>
       <use xlink:href="#TimesNewRomanPS-BoldMT-61" x="155.615234"/>
       <use xlink:href="#TimesNewRomanPS-BoldMT-63" x="205.615234"/>
       <use xlink:href="#TimesNewRomanPS-BoldMT-61" x="250"/>
       <use xlink:href="#TimesNewRomanPS-BoldMT-20" x="300"/>
       <use xlink:href="#TimesNewRomanPS-BoldMT-35" x="325"/>
       <use xlink:href="#TimesNewRomanPS-BoldMT-32" x="375"/>
       <use xlink:href="#TimesNewRomanPS-BoldMT-6b" x="425"/>
       <use xlink:href="#TimesNewRomanPS-BoldMT-20" x="480.615234"/>
       <use xlink:href="#TimesNewRomanPS-BoldMT-56" x="503.865234"/>
       <use xlink:href="#TimesNewRomanPS-BoldMT-53" x="576.082031"/>
       <use xlink:href="#TimesNewRomanPS-BoldMT-2e" x="631.697266"/>
       <use xlink:href="#TimesNewRomanPS-BoldMT-20" x="656.697266"/>
       <use xlink:href="#TimesNewRomanPS-BoldMT-4c" x="681.697266"/>
       <use xlink:href="#TimesNewRomanPS-BoldMT-4c" x="748.396484"/>
       <use xlink:href="#TimesNewRomanPS-BoldMT-61" x="815.095703"/>
       <use xlink:href="#TimesNewRomanPS-BoldMT-4d" x="865.095703"/>
       <use xlink:href="#TimesNewRomanPS-BoldMT-41" x="959.480469"/>
       <use xlink:href="#TimesNewRomanPS-BoldMT-32" x="1031.697266"/>
       <use xlink:href="#TimesNewRomanPS-BoldMT-20" x="1081.697266"/>
       <use xlink:href="#TimesNewRomanPS-BoldMT-43" x="1106.697266"/>
       <use xlink:href="#TimesNewRomanPS-BoldMT-68" x="1178.914062"/>
       <use xlink:href="#TimesNewRomanPS-BoldMT-61" x="1234.529297"/>
       <use xlink:href="#TimesNewRomanPS-BoldMT-74" x="1284.529297"/>
      </g>
     </g>
    </g>
   </g>
   <g id="matplotlib.axis_2">
    <g id="ytick_1">
     <g id="line2d_18">
      <defs>
       <path id="ma009492541" d="M 0 0 
L -3.5 0 
" style="stroke: #000000; stroke-width: 0.8"/>
      </defs>
      <g>
       <use xlink:href="#ma009492541" x="125.683687" y="332.201295" style="stroke: #000000; stroke-width: 0.8"/>
      </g>
     </g>
     <g id="text_9">
      <!-- 0 -->
      <g transform="translate(112.683687 336.17442) scale(0.12 -0.12)">
       <defs>
        <path id="TimesNewRomanPS-BoldMT-30" d="M 2966 2119 
Q 2966 1484 2788 934 
Q 2681 597 2501 381 
Q 2322 166 2094 39 
Q 1866 -88 1597 -88 
Q 1291 -88 1044 68 
Q 797 225 606 516 
Q 469 728 366 1081 
Q 231 1559 231 2069 
Q 231 2759 425 3338 
Q 584 3816 909 4070 
Q 1234 4325 1597 4325 
Q 1966 4325 2286 4073 
Q 2606 3822 2756 3397 
Q 2966 2813 2966 2119 
z
M 2003 2125 
Q 2003 3238 1991 3422 
Q 1959 3856 1841 4009 
Q 1763 4109 1588 4109 
Q 1453 4109 1375 4034 
Q 1259 3925 1218 3648 
Q 1178 3372 1178 1719 
Q 1178 819 1241 513 
Q 1288 291 1375 216 
Q 1463 141 1606 141 
Q 1763 141 1841 241 
Q 1972 416 1991 781 
L 2003 2125 
z
" transform="scale(0.015625)"/>
       </defs>
       <use xlink:href="#TimesNewRomanPS-BoldMT-30"/>
      </g>
     </g>
    </g>
    <g id="ytick_2">
     <g id="line2d_19">
      <g>
       <use xlink:href="#ma009492541" x="125.683687" y="294.432435" style="stroke: #000000; stroke-width: 0.8"/>
      </g>
     </g>
     <g id="text_10">
      <!-- 100 -->
      <g transform="translate(100.683687 298.40556) scale(0.12 -0.12)">
       <defs>
        <path id="TimesNewRomanPS-BoldMT-31" d="M 2084 4325 
L 2084 859 
Q 2084 469 2118 361 
Q 2153 253 2262 184 
Q 2372 116 2613 116 
L 2709 116 
L 2709 0 
L 478 0 
L 478 116 
L 591 116 
Q 863 116 978 178 
Q 1094 241 1134 350 
Q 1175 459 1175 859 
L 1175 3056 
Q 1175 3350 1147 3423 
Q 1119 3497 1042 3548 
Q 966 3600 866 3600 
Q 706 3600 478 3500 
L 422 3613 
L 1981 4325 
L 2084 4325 
z
" transform="scale(0.015625)"/>
       </defs>
       <use xlink:href="#TimesNewRomanPS-BoldMT-31"/>
       <use xlink:href="#TimesNewRomanPS-BoldMT-30" x="50"/>
       <use xlink:href="#TimesNewRomanPS-BoldMT-30" x="100"/>
      </g>
     </g>
    </g>
    <g id="ytick_3">
     <g id="line2d_20">
      <g>
       <use xlink:href="#ma009492541" x="125.683687" y="256.663574" style="stroke: #000000; stroke-width: 0.8"/>
      </g>
     </g>
     <g id="text_11">
      <!-- 200 -->
      <g transform="translate(100.683687 260.636699) scale(0.12 -0.12)">
       <use xlink:href="#TimesNewRomanPS-BoldMT-32"/>
       <use xlink:href="#TimesNewRomanPS-BoldMT-30" x="50"/>
       <use xlink:href="#TimesNewRomanPS-BoldMT-30" x="100"/>
      </g>
     </g>
    </g>
    <g id="ytick_4">
     <g id="line2d_21">
      <g>
       <use xlink:href="#ma009492541" x="125.683687" y="218.894713" style="stroke: #000000; stroke-width: 0.8"/>
      </g>
     </g>
     <g id="text_12">
      <!-- 300 -->
      <g transform="translate(100.683687 222.867838) scale(0.12 -0.12)">
       <defs>
        <path id="TimesNewRomanPS-BoldMT-33" d="M 947 2125 
L 947 2234 
Q 1303 2338 1440 2427 
Q 1578 2516 1678 2698 
Q 1778 2881 1778 3069 
Q 1778 3328 1589 3514 
Q 1400 3700 1119 3700 
Q 681 3700 375 3238 
L 259 3278 
Q 484 3800 836 4062 
Q 1188 4325 1619 4325 
Q 2059 4325 2345 4056 
Q 2631 3788 2631 3428 
Q 2631 3194 2498 2976 
Q 2366 2759 2081 2594 
Q 2447 2416 2639 2155 
Q 2831 1894 2831 1500 
Q 2831 838 2351 373 
Q 1872 -91 1066 -91 
Q 528 -91 281 88 
Q 103 213 103 409 
Q 103 553 206 654 
Q 309 756 444 756 
Q 547 756 638 713 
Q 688 688 992 439 
Q 1297 191 1563 191 
Q 1794 191 1959 373 
Q 2125 556 2125 838 
Q 2125 1266 1825 1627 
Q 1525 1988 947 2125 
z
" transform="scale(0.015625)"/>
       </defs>
       <use xlink:href="#TimesNewRomanPS-BoldMT-33"/>
       <use xlink:href="#TimesNewRomanPS-BoldMT-30" x="50"/>
       <use xlink:href="#TimesNewRomanPS-BoldMT-30" x="100"/>
      </g>
     </g>
    </g>
    <g id="ytick_5">
     <g id="line2d_22">
      <g>
       <use xlink:href="#ma009492541" x="125.683687" y="181.125852" style="stroke: #000000; stroke-width: 0.8"/>
      </g>
     </g>
     <g id="text_13">
      <!-- 400 -->
      <g transform="translate(100.683687 185.098977) scale(0.12 -0.12)">
       <use xlink:href="#TimesNewRomanPS-BoldMT-34"/>
       <use xlink:href="#TimesNewRomanPS-BoldMT-30" x="50"/>
       <use xlink:href="#TimesNewRomanPS-BoldMT-30" x="100"/>
      </g>
     </g>
    </g>
    <g id="ytick_6">
     <g id="line2d_23">
      <g>
       <use xlink:href="#ma009492541" x="125.683687" y="143.356992" style="stroke: #000000; stroke-width: 0.8"/>
      </g>
     </g>
     <g id="text_14">
      <!-- 500 -->
      <g transform="translate(100.683687 147.330117) scale(0.12 -0.12)">
       <use xlink:href="#TimesNewRomanPS-BoldMT-35"/>
       <use xlink:href="#TimesNewRomanPS-BoldMT-30" x="50"/>
       <use xlink:href="#TimesNewRomanPS-BoldMT-30" x="100"/>
      </g>
     </g>
    </g>
    <g id="ytick_7">
     <g id="line2d_24">
      <g>
       <use xlink:href="#ma009492541" x="125.683687" y="105.588131" style="stroke: #000000; stroke-width: 0.8"/>
      </g>
     </g>
     <g id="text_15">
      <!-- 600 -->
      <g transform="translate(100.683687 109.561256) scale(0.12 -0.12)">
       <defs>
        <path id="TimesNewRomanPS-BoldMT-36" d="M 3006 4325 
L 3006 4238 
Q 2441 4094 2098 3867 
Q 1756 3641 1557 3317 
Q 1359 2994 1250 2516 
Q 1388 2609 1478 2638 
Q 1681 2700 1888 2700 
Q 2363 2700 2680 2354 
Q 2997 2009 2997 1413 
Q 2997 994 2825 644 
Q 2653 294 2337 103 
Q 2022 -88 1663 -88 
Q 1272 -88 940 126 
Q 609 341 423 753 
Q 238 1166 238 1650 
Q 238 2363 580 2977 
Q 922 3591 1551 3955 
Q 2181 4319 3006 4325 
z
M 1209 2263 
Q 1184 1831 1184 1631 
Q 1184 1200 1267 797 
Q 1350 394 1494 231 
Q 1597 116 1738 116 
Q 1881 116 1993 283 
Q 2106 450 2106 963 
Q 2106 1825 1897 2153 
Q 1763 2366 1534 2366 
Q 1409 2366 1209 2263 
z
" transform="scale(0.015625)"/>
       </defs>
       <use xlink:href="#TimesNewRomanPS-BoldMT-36"/>
       <use xlink:href="#TimesNewRomanPS-BoldMT-30" x="50"/>
       <use xlink:href="#TimesNewRomanPS-BoldMT-30" x="100"/>
      </g>
     </g>
    </g>
    <g id="ytick_8">
     <g id="line2d_25">
      <g>
       <use xlink:href="#ma009492541" x="125.683687" y="67.81927" style="stroke: #000000; stroke-width: 0.8"/>
      </g>
     </g>
     <g id="text_16">
      <!-- 700 -->
      <g transform="translate(100.683687 71.792395) scale(0.12 -0.12)">
       <defs>
        <path id="TimesNewRomanPS-BoldMT-37" d="M 1134 -88 
L 2288 3409 
L 1409 3409 
Q 894 3409 634 3275 
Q 453 3181 334 2922 
L 216 2922 
L 522 4238 
L 3047 4238 
L 1625 -88 
L 1134 -88 
z
" transform="scale(0.015625)"/>
       </defs>
       <use xlink:href="#TimesNewRomanPS-BoldMT-37"/>
       <use xlink:href="#TimesNewRomanPS-BoldMT-30" x="50"/>
       <use xlink:href="#TimesNewRomanPS-BoldMT-30" x="100"/>
      </g>
     </g>
    </g>
    <g id="ytick_9">
     <g id="line2d_26">
      <g>
       <use xlink:href="#ma009492541" x="125.683687" y="30.050409" style="stroke: #000000; stroke-width: 0.8"/>
      </g>
     </g>
     <g id="text_17">
      <!-- 800 -->
      <g transform="translate(100.683687 34.023534) scale(0.12 -0.12)">
       <defs>
        <path id="TimesNewRomanPS-BoldMT-38" d="M 2181 2394 
Q 2628 2066 2801 1783 
Q 2975 1500 2975 1134 
Q 2975 622 2589 267 
Q 2203 -88 1541 -88 
Q 913 -88 569 221 
Q 225 531 225 978 
Q 225 1319 423 1575 
Q 622 1831 1084 2044 
Q 581 2428 439 2672 
Q 297 2916 297 3238 
Q 297 3663 658 3986 
Q 1019 4309 1647 4309 
Q 2253 4309 2579 4023 
Q 2906 3738 2906 3338 
Q 2906 3038 2729 2808 
Q 2553 2578 2181 2394 
z
M 1944 2553 
Q 2059 2709 2115 2903 
Q 2172 3097 2172 3328 
Q 2172 3734 1997 3950 
Q 1866 4116 1634 4116 
Q 1425 4116 1278 3964 
Q 1131 3813 1131 3588 
Q 1131 3359 1295 3114 
Q 1459 2869 1944 2553 
z
M 1319 1894 
Q 1222 1806 1181 1734 
Q 1119 1625 1069 1415 
Q 1019 1206 1019 978 
Q 1019 684 1094 486 
Q 1169 288 1308 200 
Q 1447 113 1594 113 
Q 1822 113 1978 280 
Q 2134 447 2134 738 
Q 2134 1344 1319 1894 
z
" transform="scale(0.015625)"/>
       </defs>
       <use xlink:href="#TimesNewRomanPS-BoldMT-38"/>
       <use xlink:href="#TimesNewRomanPS-BoldMT-30" x="50"/>
       <use xlink:href="#TimesNewRomanPS-BoldMT-30" x="100"/>
      </g>
     </g>
    </g>
    <g id="text_18">
     <!-- Alpaca Eval -->
     <g transform="translate(94.116812 203.74971) rotate(-90) scale(0.12 -0.12)">
      <defs>
       <path id="TimesNewRomanPS-BoldMT-45" d="M 1744 3994 
L 1744 2269 
L 1828 2269 
Q 2231 2269 2412 2522 
Q 2594 2775 2644 3269 
L 2763 3269 
L 2763 1050 
L 2644 1050 
Q 2606 1413 2486 1644 
Q 2366 1875 2206 1954 
Q 2047 2034 1744 2034 
L 1744 841 
Q 1744 491 1773 412 
Q 1803 334 1884 284 
Q 1966 234 2147 234 
L 2400 234 
Q 2994 234 3351 509 
Q 3709 784 3866 1347 
L 3981 1347 
L 3791 0 
L 128 0 
L 128 116 
L 269 116 
Q 453 116 566 181 
Q 647 225 691 331 
Q 725 406 725 725 
L 725 3513 
Q 725 3800 709 3866 
Q 678 3975 594 4034 
Q 475 4122 269 4122 
L 128 4122 
L 128 4238 
L 3675 4238 
L 3675 2984 
L 3556 2984 
Q 3466 3444 3302 3644 
Q 3138 3844 2838 3938 
Q 2663 3994 2181 3994 
L 1744 3994 
z
" transform="scale(0.015625)"/>
       <path id="TimesNewRomanPS-BoldMT-76" d="M 1534 -88 
L 550 2178 
Q 372 2588 272 2697 
Q 200 2778 59 2806 
L 59 2922 
L 1613 2922 
L 1613 2806 
Q 1466 2806 1413 2753 
Q 1338 2684 1338 2591 
Q 1338 2475 1475 2156 
L 1956 1059 
L 2341 2006 
Q 2506 2413 2506 2581 
Q 2506 2678 2436 2739 
Q 2366 2800 2188 2806 
L 2188 2922 
L 3144 2922 
L 3144 2806 
Q 3006 2788 2918 2703 
Q 2831 2619 2656 2206 
L 1681 -88 
L 1534 -88 
z
" transform="scale(0.015625)"/>
      </defs>
      <use xlink:href="#TimesNewRomanPS-BoldMT-41"/>
      <use xlink:href="#TimesNewRomanPS-BoldMT-6c" x="72.216797"/>
      <use xlink:href="#TimesNewRomanPS-BoldMT-70" x="100"/>
      <use xlink:href="#TimesNewRomanPS-BoldMT-61" x="155.615234"/>
      <use xlink:href="#TimesNewRomanPS-BoldMT-63" x="205.615234"/>
      <use xlink:href="#TimesNewRomanPS-BoldMT-61" x="250"/>
      <use xlink:href="#TimesNewRomanPS-BoldMT-20" x="300"/>
      <use xlink:href="#TimesNewRomanPS-BoldMT-45" x="325"/>
      <use xlink:href="#TimesNewRomanPS-BoldMT-76" x="391.699219"/>
      <use xlink:href="#TimesNewRomanPS-BoldMT-61" x="441.699219"/>
      <use xlink:href="#TimesNewRomanPS-BoldMT-6c" x="491.699219"/>
     </g>
    </g>
   </g>
   <g id="line2d_27">
    <path d="M 664.205798 332.201295 
L 664.205798 12.96 
" clip-path="url(#pa77aeef7ee)" style="fill: none; stroke-dasharray: 12.8,3.2,2,3.2; stroke-dashoffset: 0; stroke: #ffa500; stroke-width: 2"/>
   </g>
   <g id="patch_27">
    <path d="M 125.683687 332.201295 
L 125.683687 12.96 
" style="fill: none; stroke: #000000; stroke-width: 0.8; stroke-linejoin: miter; stroke-linecap: square"/>
   </g>
   <g id="patch_28">
    <path d="M 851.04 332.201295 
L 851.04 12.96 
" style="fill: none; stroke: #000000; stroke-width: 0.8; stroke-linejoin: miter; stroke-linecap: square"/>
   </g>
   <g id="patch_29">
    <path d="M 125.683687 332.201295 
L 851.04 332.201295 
" style="fill: none; stroke: #000000; stroke-width: 0.8; stroke-linejoin: miter; stroke-linecap: square"/>
   </g>
   <g id="patch_30">
    <path d="M 125.683687 12.96 
L 851.04 12.96 
" style="fill: none; stroke: #000000; stroke-width: 0.8; stroke-linejoin: miter; stroke-linecap: square"/>
   </g>
   <g id="text_19">
    <!-- 670 -->
    <g transform="translate(171.634923 95.467484) scale(0.12 -0.12)">
     <use xlink:href="#TimesNewRomanPS-BoldMT-36"/>
     <use xlink:href="#TimesNewRomanPS-BoldMT-37" x="50"/>
     <use xlink:href="#TimesNewRomanPS-BoldMT-30" x="100"/>
    </g>
   </g>
   <g id="text_20">
    <!-- 3 -->
    <g transform="translate(177.634923 73.561545) scale(0.12 -0.12)">
     <use xlink:href="#TimesNewRomanPS-BoldMT-33"/>
    </g>
   </g>
   <g id="text_21">
    <!-- 132 -->
    <g transform="translate(171.634923 23.706648) scale(0.12 -0.12)">
     <use xlink:href="#TimesNewRomanPS-BoldMT-31"/>
     <use xlink:href="#TimesNewRomanPS-BoldMT-33" x="50"/>
     <use xlink:href="#TimesNewRomanPS-BoldMT-32" x="100"/>
    </g>
   </g>
   <g id="text_22">
    <!-- 544 -->
    <g transform="translate(259.5569 143.056248) scale(0.12 -0.12)">
     <use xlink:href="#TimesNewRomanPS-BoldMT-35"/>
     <use xlink:href="#TimesNewRomanPS-BoldMT-34" x="50"/>
     <use xlink:href="#TimesNewRomanPS-BoldMT-34" x="100"/>
    </g>
   </g>
   <g id="text_23">
    <!-- 5 -->
    <g transform="translate(265.5569 120.394932) scale(0.12 -0.12)">
     <use xlink:href="#TimesNewRomanPS-BoldMT-35"/>
    </g>
   </g>
   <g id="text_24">
    <!-- 256 -->
    <g transform="translate(259.5569 23.706648) scale(0.12 -0.12)">
     <use xlink:href="#TimesNewRomanPS-BoldMT-32"/>
     <use xlink:href="#TimesNewRomanPS-BoldMT-35" x="50"/>
     <use xlink:href="#TimesNewRomanPS-BoldMT-36" x="100"/>
    </g>
   </g>
   <g id="text_25">
    <!-- 474 -->
    <g transform="translate(347.478878 169.494451) scale(0.12 -0.12)">
     <use xlink:href="#TimesNewRomanPS-BoldMT-34"/>
     <use xlink:href="#TimesNewRomanPS-BoldMT-37" x="50"/>
     <use xlink:href="#TimesNewRomanPS-BoldMT-34" x="100"/>
    </g>
   </g>
   <g id="text_26">
    <!-- 2 -->
    <g transform="translate(353.478878 147.9662) scale(0.12 -0.12)">
     <use xlink:href="#TimesNewRomanPS-BoldMT-32"/>
    </g>
   </g>
   <g id="text_27">
    <!-- 328 -->
    <g transform="translate(347.478878 24.084337) scale(0.12 -0.12)">
     <use xlink:href="#TimesNewRomanPS-BoldMT-33"/>
     <use xlink:href="#TimesNewRomanPS-BoldMT-32" x="50"/>
     <use xlink:href="#TimesNewRomanPS-BoldMT-38" x="100"/>
    </g>
   </g>
   <g id="text_28">
    <!-- 450 -->
    <g transform="translate(435.400855 178.558977) scale(0.12 -0.12)">
     <use xlink:href="#TimesNewRomanPS-BoldMT-34"/>
     <use xlink:href="#TimesNewRomanPS-BoldMT-35" x="50"/>
     <use xlink:href="#TimesNewRomanPS-BoldMT-30" x="100"/>
    </g>
   </g>
   <g id="text_29">
    <!-- 2 -->
    <g transform="translate(441.400855 157.030727) scale(0.12 -0.12)">
     <use xlink:href="#TimesNewRomanPS-BoldMT-32"/>
    </g>
   </g>
   <g id="text_30">
    <!-- 353 -->
    <g transform="translate(435.400855 23.706648) scale(0.12 -0.12)">
     <use xlink:href="#TimesNewRomanPS-BoldMT-33"/>
     <use xlink:href="#TimesNewRomanPS-BoldMT-35" x="50"/>
     <use xlink:href="#TimesNewRomanPS-BoldMT-33" x="100"/>
    </g>
   </g>
   <g id="text_31">
    <!-- 437 -->
    <g transform="translate(523.322832 183.468929) scale(0.12 -0.12)">
     <use xlink:href="#TimesNewRomanPS-BoldMT-34"/>
     <use xlink:href="#TimesNewRomanPS-BoldMT-33" x="50"/>
     <use xlink:href="#TimesNewRomanPS-BoldMT-37" x="100"/>
    </g>
   </g>
   <g id="text_32">
    <!-- 7 -->
    <g transform="translate(529.322832 160.052236) scale(0.12 -0.12)">
     <use xlink:href="#TimesNewRomanPS-BoldMT-37"/>
    </g>
   </g>
   <g id="text_33">
    <!-- 361 -->
    <g transform="translate(523.322832 23.706648) scale(0.12 -0.12)">
     <use xlink:href="#TimesNewRomanPS-BoldMT-33"/>
     <use xlink:href="#TimesNewRomanPS-BoldMT-36" x="50"/>
     <use xlink:href="#TimesNewRomanPS-BoldMT-31" x="100"/>
    </g>
   </g>
   <g id="text_34">
    <!-- 428 -->
    <g transform="translate(611.24481 186.868127) scale(0.12 -0.12)">
     <use xlink:href="#TimesNewRomanPS-BoldMT-34"/>
     <use xlink:href="#TimesNewRomanPS-BoldMT-32" x="50"/>
     <use xlink:href="#TimesNewRomanPS-BoldMT-38" x="100"/>
    </g>
   </g>
   <g id="text_35">
    <!-- 5 -->
    <g transform="translate(617.24481 164.20681) scale(0.12 -0.12)">
     <use xlink:href="#TimesNewRomanPS-BoldMT-35"/>
    </g>
   </g>
   <g id="text_36">
    <!-- 372 -->
    <g transform="translate(611.24481 23.706648) scale(0.12 -0.12)">
     <use xlink:href="#TimesNewRomanPS-BoldMT-33"/>
     <use xlink:href="#TimesNewRomanPS-BoldMT-37" x="50"/>
     <use xlink:href="#TimesNewRomanPS-BoldMT-32" x="100"/>
    </g>
   </g>
   <g id="text_37">
    <!-- 216 -->
    <g transform="translate(699.166787 266.938111) scale(0.12 -0.12)">
     <use xlink:href="#TimesNewRomanPS-BoldMT-32"/>
     <use xlink:href="#TimesNewRomanPS-BoldMT-31" x="50"/>
     <use xlink:href="#TimesNewRomanPS-BoldMT-36" x="100"/>
    </g>
   </g>
   <g id="text_38">
    <!-- 3 -->
    <g transform="translate(705.166787 245.032172) scale(0.12 -0.12)">
     <use xlink:href="#TimesNewRomanPS-BoldMT-33"/>
    </g>
   </g>
   <g id="text_39">
    <!-- 586 -->
    <g transform="translate(699.166787 23.706648) scale(0.12 -0.12)">
     <use xlink:href="#TimesNewRomanPS-BoldMT-35"/>
     <use xlink:href="#TimesNewRomanPS-BoldMT-38" x="50"/>
     <use xlink:href="#TimesNewRomanPS-BoldMT-36" x="100"/>
    </g>
   </g>
   <g id="text_40">
    <!-- 128 -->
    <g transform="translate(787.088764 300.174709) scale(0.12 -0.12)">
     <use xlink:href="#TimesNewRomanPS-BoldMT-31"/>
     <use xlink:href="#TimesNewRomanPS-BoldMT-32" x="50"/>
     <use xlink:href="#TimesNewRomanPS-BoldMT-38" x="100"/>
    </g>
   </g>
   <g id="text_41">
    <!-- 16 -->
    <g transform="translate(790.088764 273.358818) scale(0.12 -0.12)">
     <use xlink:href="#TimesNewRomanPS-BoldMT-31"/>
     <use xlink:href="#TimesNewRomanPS-BoldMT-36" x="50"/>
    </g>
   </g>
   <g id="text_42">
    <!-- 661 -->
    <g transform="translate(787.088764 23.706648) scale(0.12 -0.12)">
     <use xlink:href="#TimesNewRomanPS-BoldMT-36"/>
     <use xlink:href="#TimesNewRomanPS-BoldMT-36" x="50"/>
     <use xlink:href="#TimesNewRomanPS-BoldMT-31" x="100"/>
    </g>
   </g>
   <g id="text_43">
    <!-- 402 -->
    <g style="fill: #0000ff" transform="translate(127.466132 179.094432) scale(0.12 -0.12)">
     <use xlink:href="#TimesNewRomanPS-BoldMT-34"/>
     <use xlink:href="#TimesNewRomanPS-BoldMT-30" x="50"/>
     <use xlink:href="#TimesNewRomanPS-BoldMT-32" x="100"/>
    </g>
   </g>
   <g id="legend_1">
    <g id="patch_31">
     <path d="M 134.083687 326.201295 
L 253.089937 326.201295 
Q 255.489937 326.201295 255.489937 323.801295 
L 255.489937 274.10067 
Q 255.489937 271.70067 253.089937 271.70067 
L 134.083687 271.70067 
Q 131.683687 271.70067 131.683687 274.10067 
L 131.683687 323.801295 
Q 131.683687 326.201295 134.083687 326.201295 
z
" style="fill: #ffffff; opacity: 0.8; stroke: #cccccc; stroke-linejoin: miter"/>
    </g>
    <g id="patch_32">
     <path d="M 136.483687 284.90067 
L 160.483687 284.90067 
L 160.483687 276.50067 
L 136.483687 276.50067 
z
" style="fill: #f08080"/>
    </g>
    <g id="text_44">
     <!-- Our Wins -->
     <g transform="translate(170.083687 284.90067) scale(0.12 -0.12)">
      <defs>
       <path id="TimesNewRomanPS-BoldMT-75" d="M 3038 2922 
L 3038 634 
Q 3038 300 3100 217 
Q 3163 134 3353 113 
L 3353 0 
L 2163 0 
L 2163 391 
Q 1953 141 1743 26 
Q 1534 -88 1275 -88 
Q 1028 -88 836 64 
Q 644 216 578 419 
Q 513 622 513 1128 
L 513 2288 
Q 513 2619 452 2700 
Q 391 2781 197 2806 
L 197 2922 
L 1388 2922 
L 1388 925 
Q 1388 613 1417 522 
Q 1447 431 1511 384 
Q 1575 338 1659 338 
Q 1772 338 1863 397 
Q 1988 478 2163 725 
L 2163 2288 
Q 2163 2619 2102 2700 
Q 2041 2781 1847 2806 
L 1847 2922 
L 3038 2922 
z
" transform="scale(0.015625)"/>
      </defs>
      <use xlink:href="#TimesNewRomanPS-BoldMT-4f"/>
      <use xlink:href="#TimesNewRomanPS-BoldMT-75" x="77.783203"/>
      <use xlink:href="#TimesNewRomanPS-BoldMT-72" x="133.398438"/>
      <use xlink:href="#TimesNewRomanPS-BoldMT-20" x="176.033203"/>
      <use xlink:href="#TimesNewRomanPS-BoldMT-57" x="199.283203"/>
      <use xlink:href="#TimesNewRomanPS-BoldMT-69" x="297.533203"/>
      <use xlink:href="#TimesNewRomanPS-BoldMT-6e" x="325.316406"/>
      <use xlink:href="#TimesNewRomanPS-BoldMT-73" x="380.931641"/>
     </g>
    </g>
    <g id="patch_33">
     <path d="M 136.483687 301.867545 
L 160.483687 301.867545 
L 160.483687 293.467545 
L 136.483687 293.467545 
z
" style="fill: #ffa07a"/>
    </g>
    <g id="text_45">
     <!-- Tie -->
     <g transform="translate(170.083687 301.867545) scale(0.12 -0.12)">
      <use xlink:href="#TimesNewRomanPS-BoldMT-54"/>
      <use xlink:href="#TimesNewRomanPS-BoldMT-69" x="64.949219"/>
      <use xlink:href="#TimesNewRomanPS-BoldMT-65" x="92.732422"/>
     </g>
    </g>
    <g id="patch_34">
     <path d="M 136.483687 318.83442 
L 160.483687 318.83442 
L 160.483687 310.43442 
L 136.483687 310.43442 
z
" style="fill: #90ee90"/>
    </g>
    <g id="text_46">
     <!-- Opponent Wins -->
     <g transform="translate(170.083687 318.83442) scale(0.12 -0.12)">
      <defs>
       <path id="TimesNewRomanPS-BoldMT-6f" d="M 1594 3009 
Q 1975 3009 2303 2812 
Q 2631 2616 2801 2253 
Q 2972 1891 2972 1459 
Q 2972 838 2656 419 
Q 2275 -88 1603 -88 
Q 944 -88 587 375 
Q 231 838 231 1447 
Q 231 2075 595 2542 
Q 959 3009 1594 3009 
z
M 1606 2788 
Q 1447 2788 1333 2667 
Q 1219 2547 1183 2192 
Q 1147 1838 1147 1206 
Q 1147 872 1191 581 
Q 1225 359 1337 243 
Q 1450 128 1594 128 
Q 1734 128 1828 206 
Q 1950 313 1991 503 
Q 2053 800 2053 1703 
Q 2053 2234 1993 2432 
Q 1934 2631 1819 2722 
Q 1738 2788 1606 2788 
z
" transform="scale(0.015625)"/>
      </defs>
      <use xlink:href="#TimesNewRomanPS-BoldMT-4f"/>
      <use xlink:href="#TimesNewRomanPS-BoldMT-70" x="77.783203"/>
      <use xlink:href="#TimesNewRomanPS-BoldMT-70" x="133.398438"/>
      <use xlink:href="#TimesNewRomanPS-BoldMT-6f" x="189.013672"/>
      <use xlink:href="#TimesNewRomanPS-BoldMT-6e" x="239.013672"/>
      <use xlink:href="#TimesNewRomanPS-BoldMT-65" x="294.628906"/>
      <use xlink:href="#TimesNewRomanPS-BoldMT-6e" x="339.013672"/>
      <use xlink:href="#TimesNewRomanPS-BoldMT-74" x="394.628906"/>
      <use xlink:href="#TimesNewRomanPS-BoldMT-20" x="427.929688"/>
      <use xlink:href="#TimesNewRomanPS-BoldMT-57" x="451.179688"/>
      <use xlink:href="#TimesNewRomanPS-BoldMT-69" x="549.429688"/>
      <use xlink:href="#TimesNewRomanPS-BoldMT-6e" x="577.212891"/>
      <use xlink:href="#TimesNewRomanPS-BoldMT-73" x="632.828125"/>
     </g>
    </g>
   </g>
  </g>
 </g>
 <defs>
  <clipPath id="pa77aeef7ee">
   <rect x="125.683687" y="12.96" width="725.356313" height="319.241295"/>
  </clipPath>
 </defs>
</svg>
